<svg width="108" height="94" viewBox="0 0 108 94" fill="none" xmlns="http://www.w3.org/2000/svg">
<g filter="url(#filter0_d_1_40)">
<mask id="path-1-outside-1_1_40" maskUnits="userSpaceOnUse" x="3.34753" y="2.52277" width="101" height="87" fill="black">
<rect fill="white" x="3.34753" y="2.52277" width="101" height="87"/>
<path d="M12.8241 51.89C16.5788 41.6659 34.9456 39.0045 53.8475 45.9456C72.7496 52.8868 85.0288 66.8025 81.2743 77.0267C77.5197 87.25 65.9513 71.3994 47.0497 64.4583C28.1476 57.5172 9.06961 62.1142 12.8241 51.89ZM26.4208 14.8655C30.1752 4.6414 41.7435 20.4917 60.6454 27.4329C79.5474 34.374 98.6253 29.7772 94.871 40.0013C91.1165 50.2255 72.7496 52.8868 53.8475 45.9456C34.9456 39.0045 22.6665 25.0897 26.4208 14.8655Z"/>
</mask>
<path d="M12.8241 51.89C16.5788 41.6659 34.9456 39.0045 53.8475 45.9456C72.7496 52.8868 85.0288 66.8025 81.2743 77.0267C77.5197 87.25 65.9513 71.3994 47.0497 64.4583C28.1476 57.5172 9.06961 62.1142 12.8241 51.89ZM26.4208 14.8655C30.1752 4.6414 41.7435 20.4917 60.6454 27.4329C79.5474 34.374 98.6253 29.7772 94.871 40.0013C91.1165 50.2255 72.7496 52.8868 53.8475 45.9456C34.9456 39.0045 22.6665 25.0897 26.4208 14.8655Z" fill="#0094EE"/>
<path d="M12.8241 51.89L5.09746 49.0524L5.09741 49.0526L12.8241 51.89ZM53.8475 45.9456L56.6849 38.2189L56.6849 38.2189L53.8475 45.9456ZM81.2743 77.0267L89.0009 79.8644L89.001 79.864L81.2743 77.0267ZM47.0497 64.4583L49.8871 56.7316L49.887 56.7316L47.0497 64.4583ZM26.4208 14.8655L18.6941 12.0282L18.694 12.0283L26.4208 14.8655ZM60.6454 27.4329L57.808 35.1596L57.808 35.1596L60.6454 27.4329ZM94.871 40.0013L102.598 42.8386L102.598 42.8386L94.871 40.0013ZM12.8241 51.89L20.5507 54.7275C20.8907 53.8018 22.6438 51.5242 28.836 50.627C34.6605 49.783 42.5873 50.5793 51.0102 53.6723L53.8475 45.9456L56.6849 38.2189C46.2059 34.3709 35.4983 33.0273 26.4752 34.3348C17.8198 35.5889 8.51218 39.7541 5.09746 49.0524L12.8241 51.89ZM53.8475 45.9456L51.0102 53.6723C59.433 56.7653 65.9913 61.2883 69.8853 65.7011C74.025 70.3925 73.8876 73.2635 73.5476 74.1893L81.2743 77.0267L89.001 79.864C92.4155 70.5656 88.0157 61.3666 82.229 54.8088C76.1965 47.9725 67.1641 42.067 56.6849 38.2189L53.8475 45.9456ZM81.2743 77.0267L73.5477 74.189C73.3994 74.5929 73.5665 73.8642 74.58 73.1083C75.7734 72.2183 77.0361 72.0959 77.6749 72.1484C78.0978 72.1831 78.0301 72.2696 77.2325 71.901C76.4935 71.5595 75.5138 71.0115 74.1825 70.1853C69.2136 67.1016 60.3838 60.5862 49.8871 56.7316L47.0497 64.4583L44.2123 72.185C52.6172 75.2715 59.0224 80.1519 65.5018 84.173C67.0325 85.1229 68.6781 86.083 70.326 86.8446C71.9153 87.5791 73.9958 88.3639 76.3266 88.5554C78.8733 88.7647 81.8034 88.2577 84.4219 86.3048C86.8606 84.486 88.2106 82.0162 89.0009 79.8644L81.2743 77.0267ZM47.0497 64.4583L49.887 56.7316C39.3902 52.877 28.4419 52.1296 22.6581 51.2646C21.1084 51.0329 20.0069 50.8165 19.2225 50.5986C18.3759 50.3635 18.3802 50.2537 18.7252 50.5009C19.2462 50.8744 20.1295 51.7849 20.4632 53.2357C20.7466 54.4678 20.4024 55.1314 20.5508 54.7273L12.8241 51.89L5.09741 49.0526C4.30718 51.2045 3.73784 53.961 4.41977 56.9258C5.152 60.1093 7.05747 62.3923 9.13448 63.8811C11.0353 65.2436 13.1294 65.9918 14.8164 66.4604C16.5656 66.9463 18.4415 67.2795 20.2233 67.5459C27.7654 68.6738 35.8071 69.0985 44.2123 72.185L47.0497 64.4583ZM26.4208 14.8655L34.1475 17.7029C34.2959 17.2987 34.1289 18.0273 33.1156 18.7832C31.9223 19.6733 30.6597 19.7958 30.0206 19.7434C29.5976 19.7086 29.6652 19.6221 30.4627 19.9906C31.2016 20.3321 32.1813 20.88 33.5126 21.7061C38.4813 24.7896 47.3113 31.305 57.808 35.1596L60.6454 27.4329L63.4828 19.7063C55.0776 16.6197 48.6725 11.7393 42.193 7.71831C40.6623 6.76839 39.0166 5.80837 37.3687 5.04682C35.7793 4.31233 33.6987 3.52759 31.3678 3.3362C28.8209 3.12707 25.8908 3.6345 23.2725 5.5876C20.8341 7.40652 19.4843 9.87631 18.6941 12.0282L26.4208 14.8655ZM60.6454 27.4329L57.808 35.1596C68.3048 39.0142 79.2531 39.7617 85.0369 40.6266C86.5866 40.8584 87.6881 41.0747 88.4725 41.2926C89.3191 41.5278 89.3148 41.6376 88.9699 41.3904C88.4488 41.0169 87.5655 40.1064 87.2318 38.6556C86.9484 37.4235 87.2926 36.7599 87.1443 37.164L94.871 40.0013L102.598 42.8386C103.388 40.6866 103.957 37.9302 103.275 34.9653C102.543 31.7819 100.637 29.4989 98.5605 28.0102C96.6597 26.6477 94.5656 25.8995 92.8786 25.4308C91.1295 24.945 89.2535 24.6118 87.4717 24.3453C79.9296 23.2174 71.888 22.7928 63.4827 19.7062L60.6454 27.4329ZM94.871 40.0013L87.1443 37.1639C86.8044 38.0895 85.0514 40.3671 78.8592 41.2643C73.0347 42.1083 65.1079 41.312 56.6849 38.2189L53.8475 45.9456L51.0102 53.6723C61.4893 57.5204 72.1969 58.864 81.2199 57.5566C89.8754 56.3024 99.1831 52.1372 102.598 42.8386L94.871 40.0013ZM53.8475 45.9456L56.6849 38.2189C48.262 35.1259 41.7038 30.6031 37.8098 26.1904C33.6701 21.4993 33.8076 18.6285 34.1475 17.7028L26.4208 14.8655L18.694 12.0283C15.2797 21.3267 19.6796 30.5254 25.4663 37.083C31.4988 43.9191 40.5312 49.8242 51.0102 53.6723L53.8475 45.9456Z" fill="white" mask="url(#path-1-outside-1_1_40)"/>
<path d="M12.8241 51.89C16.5788 41.6659 34.9456 39.0045 53.8475 45.9456C72.7496 52.8868 85.0288 66.8025 81.2743 77.0267C77.5197 87.25 65.9513 71.3994 47.0497 64.4583C28.1476 57.5172 9.06961 62.1142 12.8241 51.89ZM26.4208 14.8655C30.1752 4.6414 41.7435 20.4917 60.6454 27.4329C79.5474 34.374 98.6253 29.7772 94.871 40.0013C91.1165 50.2255 72.7496 52.8868 53.8475 45.9456C34.9456 39.0045 22.6665 25.0897 26.4208 14.8655Z" fill="#0094EE"/>
</g>
<defs>
<filter id="filter0_d_1_40" x="8.58307e-06" y="6.85453e-06" width="107.695" height="93.5379" filterUnits="userSpaceOnUse" color-interpolation-filters="sRGB">
<feFlood flood-opacity="0" result="BackgroundImageFix"/>
<feColorMatrix in="SourceAlpha" type="matrix" values="0 0 0 0 0 0 0 0 0 0 0 0 0 0 0 0 0 0 127 0" result="hardAlpha"/>
<feOffset dy="0.823118"/>
<feGaussianBlur stdDeviation="2.0578"/>
<feComposite in2="hardAlpha" operator="out"/>
<feColorMatrix type="matrix" values="0 0 0 0 0 0 0 0 0 0 0 0 0 0 0 0 0 0 0.5 0"/>
<feBlend mode="normal" in2="BackgroundImageFix" result="effect1_dropShadow_1_40"/>
<feBlend mode="normal" in="SourceGraphic" in2="effect1_dropShadow_1_40" result="shape"/>
</filter>
</defs>
</svg>
