<svg width="117" height="117" viewBox="0 0 117 117" fill="none" xmlns="http://www.w3.org/2000/svg">
<g filter="url(#filter0_d_1_60)">
<mask id="path-1-outside-1_1_60" maskUnits="userSpaceOnUse" x="-16.0025" y="-15.8456" width="147.631" height="145.748" fill="black">
<rect fill="white" x="-16.0025" y="-15.8456" width="147.631" height="145.748"/>
<path d="M39.9143 19.0325C49.5605 14.4205 61.1191 18.5019 65.7313 28.148C66.6316 30.0312 67.1989 31.9874 67.46 33.9504C68.9561 32.4708 70.7205 31.2115 72.7257 30.2527C82.3719 25.6406 93.93 29.7213 98.5423 39.3674C103.155 49.0136 99.0743 60.5726 89.4281 65.1848C87.5502 66.0827 85.5994 66.6491 83.6419 66.9112C84.1956 67.7219 84.6945 68.5852 85.1312 69.4984C89.7434 79.1446 85.6631 90.7035 76.017 95.3158C66.3708 99.9281 54.8114 95.847 50.1991 86.2007C49.8079 85.3825 49.4807 84.5501 49.2127 83.7097C47.8861 84.8889 46.3744 85.9046 44.693 86.7086C35.0468 91.3208 23.4874 87.2397 18.8752 77.5935C14.2633 67.9473 18.3446 56.3887 27.9907 51.7765C30.0562 50.789 32.2095 50.2008 34.3634 49.9797C32.9416 48.5131 31.7291 46.7949 30.7992 44.8504C26.187 35.2041 30.2681 23.6447 39.9143 19.0325Z"/>
</mask>
<path d="M39.9143 19.0325C49.5605 14.4205 61.1191 18.5019 65.7313 28.148C66.6316 30.0312 67.1989 31.9874 67.46 33.9504C68.9561 32.4708 70.7205 31.2115 72.7257 30.2527C82.3719 25.6406 93.93 29.7213 98.5423 39.3674C103.155 49.0136 99.0743 60.5726 89.4281 65.1848C87.5502 66.0827 85.5994 66.6491 83.6419 66.9112C84.1956 67.7219 84.6945 68.5852 85.1312 69.4984C89.7434 79.1446 85.6631 90.7035 76.017 95.3158C66.3708 99.9281 54.8114 95.847 50.1991 86.2007C49.8079 85.3825 49.4807 84.5501 49.2127 83.7097C47.8861 84.8889 46.3744 85.9046 44.693 86.7086C35.0468 91.3208 23.4874 87.2397 18.8752 77.5935C14.2633 67.9473 18.3446 56.3887 27.9907 51.7765C30.0562 50.789 32.2095 50.2008 34.3634 49.9797C32.9416 48.5131 31.7291 46.7949 30.7992 44.8504C26.187 35.2041 30.2681 23.6447 39.9143 19.0325Z" fill="#0094EE"/>
<path d="M39.9143 19.0325L35.1588 9.08622L35.1586 9.08628L39.9143 19.0325ZM65.7313 28.148L75.6776 23.3926L75.6775 23.3923L65.7313 28.148ZM67.46 33.9504L56.5315 35.4035L59.4528 57.374L75.2121 41.7893L67.46 33.9504ZM72.7257 30.2527L67.9701 20.3065L67.9701 20.3065L72.7257 30.2527ZM98.5423 39.3674L108.489 34.6117L108.488 34.6116L98.5423 39.3674ZM89.4281 65.1848L94.1838 75.131L94.1838 75.131L89.4281 65.1848ZM83.6419 66.9112L82.1791 55.9839L64.4508 58.3572L74.5375 73.1283L83.6419 66.9112ZM85.1312 69.4984L95.0774 64.7427L95.0773 64.7425L85.1312 69.4984ZM76.017 95.3158L80.7727 105.262L80.7728 105.262L76.017 95.3158ZM50.1991 86.2007L40.2528 90.9562L40.2529 90.9564L50.1991 86.2007ZM49.2127 83.7097L59.7161 80.3598L54.5632 64.2038L41.8885 75.4696L49.2127 83.7097ZM44.693 86.7086L49.4487 96.6548L49.449 96.6547L44.693 86.7086ZM18.8752 77.5935L8.92886 82.3489L8.92897 82.3492L18.8752 77.5935ZM27.9907 51.7765L23.2353 41.8302L23.235 41.8303L27.9907 51.7765ZM34.3634 49.9797L35.4892 60.9468L58.1009 58.6257L42.2789 42.3057L34.3634 49.9797ZM30.7992 44.8504L20.853 49.606L20.8531 49.6063L30.7992 44.8504ZM39.9143 19.0325L44.6698 28.9788C48.8224 26.9934 53.7991 28.7502 55.785 32.9037L65.7313 28.148L75.6775 23.3923C68.4391 8.25356 50.2985 1.84755 35.1588 9.08622L39.9143 19.0325ZM65.7313 28.148L55.7849 32.9034C56.1781 33.7258 56.42 34.5657 56.5315 35.4035L67.46 33.9504L78.3885 32.4972C77.9778 29.4091 77.0851 26.3365 75.6776 23.3926L65.7313 28.148ZM67.46 33.9504L75.2121 41.7893C75.8469 41.1615 76.6018 40.6195 77.4814 40.199L72.7257 30.2527L67.9701 20.3065C64.8391 21.8035 62.0654 23.7801 59.7079 26.1115L67.46 33.9504ZM72.7257 30.2527L77.4814 40.199C81.6343 38.2133 86.6103 39.97 88.5961 44.1231L98.5423 39.3674L108.488 34.6116C101.25 19.4725 83.1095 13.0678 67.9701 20.3065L72.7257 30.2527ZM98.5423 39.3674L88.5961 44.123C90.5821 48.2768 88.8249 53.2531 84.6724 55.2386L89.4281 65.1848L94.1838 75.131C109.324 67.892 115.727 49.7504 108.489 34.6117L98.5423 39.3674ZM89.4281 65.1848L84.6724 55.2386C83.8535 55.6302 83.0159 55.8719 82.1791 55.9839L83.6419 66.9112L85.1047 77.8384C88.183 77.4263 91.2469 76.5352 94.1838 75.131L89.4281 65.1848ZM83.6419 66.9112L74.5375 73.1283C74.775 73.4762 74.9923 73.8511 75.1851 74.2543L85.1312 69.4984L95.0773 64.7425C94.3968 63.3193 93.6161 61.9677 92.7464 60.694L83.6419 66.9112ZM85.1312 69.4984L75.185 74.2541C77.171 78.4076 75.4137 83.3841 71.2612 85.3696L76.017 95.3158L80.7728 105.262C95.9125 98.023 102.316 79.8815 95.0774 64.7427L85.1312 69.4984ZM76.017 95.3158L71.2613 85.3696C67.1082 87.3553 62.1311 85.5982 60.1454 81.4451L50.1991 86.2007L40.2529 90.9564C47.4916 106.096 65.6333 112.501 80.7727 105.262L76.017 95.3158ZM50.1991 86.2007L60.1455 81.4453C59.9778 81.0945 59.835 80.7325 59.7161 80.3598L49.2127 83.7097L38.7093 87.0597C39.1264 88.3676 39.6381 89.6705 40.2528 90.9562L50.1991 86.2007ZM49.2127 83.7097L41.8885 75.4696C41.3232 75.972 40.674 76.4101 39.9371 76.7625L44.693 86.7086L49.449 96.6547C52.0748 95.3991 54.4489 93.8057 56.5369 91.9499L49.2127 83.7097ZM44.693 86.7086L39.9374 76.7623C35.7843 78.7481 30.8072 76.9909 28.8214 72.8378L18.8752 77.5935L8.92897 82.3492C16.1677 97.4885 34.3093 103.894 49.4487 96.6548L44.693 86.7086ZM18.8752 77.5935L28.8215 72.838C26.8361 68.6854 28.593 63.7086 32.7464 61.7227L27.9907 51.7765L23.235 41.8303C8.09621 49.0687 1.69042 67.2093 8.92886 82.3489L18.8752 77.5935ZM27.9907 51.7765L32.7461 61.7228C33.6509 61.2903 34.5743 61.0407 35.4892 60.9468L34.3634 49.9797L33.2377 39.0126C29.8447 39.3609 26.4616 40.2876 23.2353 41.8302L27.9907 51.7765ZM34.3634 49.9797L42.2789 42.3057C41.6755 41.6834 41.1533 40.9477 40.7453 40.0945L30.7992 44.8504L20.8531 49.6063C22.3048 52.6422 24.2076 55.3428 26.448 57.6537L34.3634 49.9797ZM30.7992 44.8504L40.7454 40.0947C38.7597 35.9416 40.5169 30.9645 44.67 28.9787L39.9143 19.0325L35.1586 9.08628C20.0192 16.325 13.6143 34.4667 20.853 49.606L30.7992 44.8504Z" fill="white" mask="url(#path-1-outside-1_1_60)"/>
<path d="M39.9143 19.0325C49.5605 14.4205 61.1191 18.5019 65.7313 28.148C66.6316 30.0312 67.1989 31.9874 67.46 33.9504C68.9561 32.4708 70.7205 31.2115 72.7257 30.2527C82.3719 25.6406 93.93 29.7213 98.5423 39.3674C103.155 49.0136 99.0743 60.5726 89.4281 65.1848C87.7255 65.9989 85.9629 66.5403 84.1898 66.83C85.2174 68.0546 86.1092 69.4272 86.8307 70.9362C91.4429 80.5823 87.3621 92.1404 77.7161 96.7527C68.0699 101.365 56.5109 97.2847 51.8987 87.6385C51.1251 86.0207 50.5961 84.3489 50.2969 82.6653C48.7306 84.2943 46.852 85.6762 44.693 86.7086C35.0468 91.3208 23.4874 87.2397 18.8752 77.5935C14.2633 67.9473 18.3446 56.3887 27.9907 51.7765C30.0562 50.789 32.2095 50.2008 34.3634 49.9797C32.9416 48.5131 31.7291 46.7949 30.7992 44.8504C26.187 35.2041 30.2681 23.6447 39.9143 19.0325Z" fill="#0094EE"/>
</g>
<defs>
<filter id="filter0_d_1_60" x="0.437483" y="1.69724" width="116.543" height="113.159" filterUnits="userSpaceOnUse" color-interpolation-filters="sRGB">
<feFlood flood-opacity="0" result="BackgroundImageFix"/>
<feColorMatrix in="SourceAlpha" type="matrix" values="0 0 0 0 0 0 0 0 0 0 0 0 0 0 0 0 0 0 127 0" result="hardAlpha"/>
<feOffset dy="1.10247"/>
<feGaussianBlur stdDeviation="2.75617"/>
<feComposite in2="hardAlpha" operator="out"/>
<feColorMatrix type="matrix" values="0 0 0 0 0 0 0 0 0 0 0 0 0 0 0 0 0 0 0.5 0"/>
<feBlend mode="normal" in2="BackgroundImageFix" result="effect1_dropShadow_1_60"/>
<feBlend mode="normal" in="SourceGraphic" in2="effect1_dropShadow_1_60" result="shape"/>
</filter>
</defs>
</svg>
