<svg width="62" height="42" viewBox="0 0 62 42" fill="none" xmlns="http://www.w3.org/2000/svg">
<path d="M56.7461 0.544922C57.8339 0.456629 58.7272 0.495763 59.4307 0.69043C60.1214 0.881585 60.6171 1.21838 60.9512 1.73047C61.2926 2.25397 61.5 3.01521 61.5 4.11621C61.4998 8.47555 58.2259 12.5348 52.6826 15.5332C47.1591 18.5209 39.4939 20.3838 31 20.3838C22.5061 20.3838 14.8409 18.5209 9.31738 15.5332C3.77413 12.5348 0.500162 8.47554 0.5 4.11621C0.5 3.01522 0.707368 2.25397 1.04883 1.73047C1.38286 1.21838 1.87858 0.881585 2.56934 0.69043C3.2728 0.495763 4.16613 0.456629 5.25391 0.544922C6.33773 0.632899 7.5831 0.844874 8.97852 1.13281C14.5355 2.27949 22.3719 4.61621 31 4.61621C39.6281 4.61621 47.4645 2.27949 53.0215 1.13281C54.4169 0.844874 55.6623 0.632899 56.7461 0.544922Z" fill="#0094EE" stroke="#FFBD14"/>
<path d="M31 21.3838C39.4939 21.3838 47.1591 23.2467 52.6826 26.2344C58.2258 29.2327 61.4998 33.2921 61.5 37.6514C61.5 38.7523 61.2926 39.5136 60.9512 40.0371C60.6171 40.5492 60.1214 40.886 59.4307 41.0771C58.7272 41.2718 57.8339 41.3109 56.7461 41.2227C55.6623 41.1347 54.4169 40.9227 53.0215 40.6348C47.4645 39.4881 39.6281 37.1514 31 37.1514C22.3719 37.1514 14.5355 39.4881 8.97852 40.6348C7.58309 40.9227 6.33774 41.1347 5.25391 41.2227C4.16613 41.3109 3.2728 41.2718 2.56934 41.0771C1.8786 40.886 1.38286 40.5492 1.04883 40.0371C0.707407 39.5136 0.5 38.7523 0.5 37.6514C0.500234 33.2921 3.77418 29.2327 9.31738 26.2344C14.8409 23.2467 22.5061 21.3838 31 21.3838Z" fill="#0094EE" stroke="#FFBD14"/>
</svg>
