<svg width="129" height="60" viewBox="0 0 129 60" fill="none" xmlns="http://www.w3.org/2000/svg">
<g clip-path="url(#clip0_1_425)">
<path d="M31.1033 6.05254C31.0772 6.05906 30.8259 6.10149 30.5486 6.15043C30.0884 6.22875 29.7034 6.30381 29.2106 6.4115C29.0964 6.43434 29.0279 6.46697 29.0213 6.49961C29.0115 6.55835 29.2367 6.70846 29.5859 6.87489C29.7132 6.93362 29.8796 7.01847 29.9612 7.06416L30.108 7.14248L30.1439 7.47859C30.2059 8.03988 30.2973 8.43147 30.3593 8.4119C30.3789 8.40537 30.4376 8.31726 30.4931 8.22262C30.7411 7.75924 30.79 7.66786 30.8977 7.45575C30.9597 7.32848 31.025 7.20448 31.0413 7.17837C31.0576 7.15226 31.1392 6.9891 31.2241 6.81941C31.3056 6.64972 31.4166 6.42455 31.4688 6.32013C31.5961 6.07212 31.5798 6.03622 31.3415 6.03948C31.2371 6.04275 31.1294 6.04927 31.1033 6.05254Z" fill="white"/>
<path d="M26.3077 7.36543C26.076 7.38174 26.063 7.43722 26.2392 7.60365C26.6177 7.95282 26.6177 7.95282 26.6373 8.20083C26.6471 8.32483 26.6667 8.43578 26.6765 8.44557C26.6993 8.47168 26.9506 8.18777 26.9539 8.1323C26.9539 8.11272 26.9669 8.09314 26.9832 8.09314C27.0322 8.09314 27.476 7.47311 27.476 7.40458C27.476 7.34585 27.4499 7.34258 26.98 7.34911C26.7058 7.35237 26.4024 7.3589 26.3077 7.36543Z" fill="white"/>
<path d="M21.8988 7.66905C21.8988 7.71147 22.2121 8.00517 22.3557 8.09328C22.4046 8.12264 22.4111 8.30213 22.3785 8.62193C22.3589 8.81446 22.3622 8.87646 22.3916 8.87646C22.4405 8.87646 23.0736 8.24012 23.0736 8.19444C23.0736 8.17486 23.0997 8.14222 23.1356 8.11938C23.227 8.05412 23.4978 7.72779 23.4978 7.67884C23.4978 7.6462 23.3347 7.63641 22.6983 7.63641C22.2056 7.63641 21.8988 7.64947 21.8988 7.66905Z" fill="white"/>
<path d="M29.037 7.94389C28.988 7.96999 28.9293 8.00589 28.9065 8.02547C28.8836 8.04505 28.7759 8.1201 28.6682 8.18863C28.5606 8.25716 28.3648 8.38769 28.231 8.47254C28.0972 8.56065 27.9666 8.64549 27.9373 8.66507C27.9079 8.68139 27.8328 8.73687 27.7676 8.78582C27.7023 8.83803 27.6338 8.87719 27.6142 8.87719C27.5979 8.87719 27.5653 8.90003 27.5424 8.92614C27.5228 8.94898 27.4217 9.02077 27.3238 9.07951C27.2226 9.13825 27.1182 9.20351 27.0888 9.21983C27.0594 9.23941 26.9713 9.29489 26.8898 9.3471C26.8082 9.39605 26.6809 9.4809 26.6058 9.53311C26.5308 9.58532 26.459 9.62774 26.4459 9.62774C26.4329 9.62774 26.3774 9.66038 26.3219 9.7028C26.2338 9.76807 26.1131 9.84312 25.8063 10.0193C25.5126 10.189 25.3854 10.2641 25.2255 10.362C25.1276 10.424 24.9644 10.5186 24.8665 10.5741C24.7686 10.6296 24.6152 10.7144 24.5239 10.7666C24.4358 10.8156 24.2922 10.8972 24.2073 10.9428C23.646 11.2594 23.4437 11.3638 22.4843 11.8468C21.6522 12.2677 21.1464 12.5092 20.6242 12.7409C20.4709 12.8095 20.2751 12.8976 20.1837 12.94C20.0956 12.9791 19.9324 13.0509 19.8247 13.0966C19.717 13.1423 19.5278 13.2239 19.4038 13.2794C19.283 13.3348 19.1688 13.3805 19.1558 13.3805C19.1394 13.3805 19.0317 13.423 18.9175 13.4784C18.8001 13.5306 18.6891 13.5763 18.6728 13.5763C18.6532 13.5763 18.5423 13.6187 18.428 13.6742C18.3106 13.7264 18.1996 13.7721 18.1768 13.7721C18.1572 13.7721 18.0723 13.8015 17.9908 13.8407C17.9059 13.8798 17.7656 13.932 17.6742 13.9581C17.5828 13.9842 17.4947 14.0201 17.4752 14.0332C17.4588 14.0462 17.3544 14.0854 17.2467 14.1148C17.139 14.1474 16.9726 14.2061 16.878 14.2486C16.7833 14.291 16.6822 14.3269 16.6495 14.3269C16.6202 14.3269 16.5419 14.2616 16.4799 14.18C16.4179 14.0985 16.3297 13.9908 16.2841 13.9418C16.2384 13.8929 16.1307 13.7656 16.0393 13.6612C15.9512 13.5567 15.8272 13.4197 15.7685 13.3577C15.6445 13.2206 15.6379 13.1847 15.7358 13.1847C15.775 13.1847 15.9545 13.139 16.1339 13.0836C16.3167 13.0281 16.5875 12.9465 16.7409 12.9008C17.015 12.8192 17.3414 12.7116 17.7525 12.568C17.87 12.5288 18.0528 12.4701 18.1604 12.4374C18.2681 12.4048 18.4313 12.3493 18.5194 12.3134C18.6793 12.2482 18.8523 12.1862 19.1753 12.0752C19.2667 12.0426 19.4038 11.9871 19.4821 11.9479C19.5604 11.912 19.6452 11.8794 19.6681 11.8794C19.6942 11.8794 19.7986 11.8337 19.9063 11.7815C20.014 11.726 20.1152 11.6836 20.1347 11.6836C20.1543 11.6836 20.2653 11.6379 20.3795 11.5857C20.4937 11.5302 20.5981 11.4878 20.6079 11.4878C20.621 11.4878 20.7254 11.4421 20.8461 11.3867C21.2736 11.1876 21.8153 10.9298 21.9132 10.8776C22.1645 10.7405 22.4484 10.5937 22.5626 10.5349C22.6344 10.499 22.7127 10.4501 22.7388 10.424C22.7617 10.3979 22.7976 10.3783 22.8172 10.3783C22.8335 10.3783 22.9151 10.3326 22.9966 10.2804C23.075 10.2249 23.1468 10.1825 23.1533 10.1825C23.1598 10.1825 23.2316 10.1368 23.3099 10.0846C23.3915 10.0291 23.4698 9.98671 23.4894 9.98671C23.5057 9.98671 23.5384 9.96386 23.5612 9.93776C23.5808 9.91491 23.6754 9.84638 23.7668 9.79091C23.9822 9.66364 24.4097 9.38952 24.6544 9.21983C24.7588 9.14804 24.8665 9.07298 24.8959 9.05667C25.2451 8.82824 25.343 8.76297 25.3723 8.74013C25.5714 8.58349 25.6171 8.54107 25.6171 8.5117C25.6171 8.46275 25.4213 8.50191 25.2026 8.59328C24.6283 8.83803 24.5304 8.87719 24.501 8.87719C24.4847 8.87719 24.3901 8.91308 24.2922 8.95877C24.1943 9.00446 24.0996 9.04035 24.0801 9.04035C24.0637 9.04035 23.943 9.08278 23.8125 9.13499C23.5612 9.23289 23.1631 9.383 22.8922 9.4809C22.8041 9.51353 22.5692 9.59511 22.3701 9.6669C22.1743 9.73543 21.9459 9.81375 21.8643 9.83659C21.7827 9.85944 21.6456 9.90512 21.5543 9.93776C21.2345 10.052 20.8657 10.1727 20.5427 10.2739C20.3632 10.3293 20.0727 10.4175 19.8933 10.4729C19.717 10.5284 19.5473 10.5741 19.5147 10.5741C19.4853 10.5741 19.3744 10.6035 19.2667 10.6426C19.1623 10.6785 19.0024 10.7209 18.911 10.7405C18.8229 10.7568 18.6304 10.8058 18.4868 10.845C18.3432 10.8874 18.0201 10.969 17.7689 11.0277C17.5176 11.0864 17.1456 11.1778 16.9432 11.23C16.7409 11.2822 16.5484 11.3247 16.519 11.3247C16.4864 11.3247 16.3232 11.3605 16.1535 11.403C15.9838 11.4454 15.7848 11.4911 15.713 11.5041C15.6412 11.5139 15.4291 11.5596 15.2398 11.602C14.6785 11.726 13.3079 11.9969 12.9881 12.0491C12.8707 12.0654 12.5443 12.1242 12.2604 12.1764C11.9798 12.2286 11.6861 12.271 11.6078 12.271C11.5327 12.271 11.3304 12.2939 11.1607 12.32C10.991 12.3493 10.7038 12.3918 10.5244 12.4179C10.0577 12.4896 9.14072 12.7116 8.65448 12.878C8.34774 12.9824 8.20089 13.0346 8.06057 13.0966C7.97898 13.1325 7.86151 13.1782 7.79624 13.201C7.66571 13.2467 6.94126 13.6024 6.73893 13.7166C6.62145 13.7819 6.44197 13.8896 6.29186 13.9842C6.06017 14.1311 5.68163 14.3987 5.63268 14.4542C5.59678 14.49 5.5511 14.5227 5.52499 14.5227C5.50215 14.5227 5.48257 14.5357 5.48257 14.5488C5.48257 14.5651 5.41404 14.6238 5.33246 14.6826C5.1236 14.836 4.46116 15.4951 4.17399 15.8443C3.87376 16.2065 3.58007 16.6308 3.34185 17.0517C3.18195 17.3356 2.8393 18.0601 2.8393 18.1221C2.8393 18.1417 2.81972 18.1971 2.79688 18.2428C2.71203 18.4027 2.53255 18.9836 2.39549 19.5481C2.30086 19.9202 2.30086 19.93 2.29107 21.1472C2.27802 22.6352 2.29107 22.756 2.58476 23.7578C2.77077 24.3941 3.0351 24.9978 3.37122 25.5689C3.42669 25.657 3.49522 25.7778 3.52786 25.8365C3.56049 25.892 3.60617 25.9638 3.63554 25.9997C3.66165 26.0323 3.79218 26.2053 3.92598 26.3847C4.41547 27.0505 5.26066 27.8663 5.93943 28.3297C6.05691 28.408 6.15807 28.4798 6.16786 28.4896C6.1907 28.5157 6.62145 28.7963 6.73893 28.8616C6.79441 28.8942 6.9021 28.9562 6.98368 29.0019C7.33612 29.201 8.49785 29.7525 9.13745 30.0233C9.27125 30.082 9.46704 30.1702 9.57147 30.2224C9.67589 30.2746 9.78032 30.317 9.7999 30.317C9.81948 30.317 9.9239 30.3594 10.0349 30.4116C10.2241 30.503 10.4265 30.5944 10.9323 30.8065C11.3891 30.999 11.536 31.061 11.7579 31.1622C11.8786 31.2177 11.9961 31.2634 12.0189 31.2634C12.0418 31.2634 12.094 31.2862 12.1332 31.3156C12.1756 31.3449 12.2767 31.3939 12.3616 31.4233C12.4464 31.4559 12.6031 31.5212 12.7108 31.5701C12.9033 31.6582 12.962 31.6843 13.4939 31.9389C13.6375 32.0041 13.8105 32.0955 13.8757 32.1347C13.9443 32.1771 14.0193 32.2097 14.0487 32.2097C14.0748 32.2097 14.0977 32.2195 14.0977 32.2326C14.0977 32.2489 14.1662 32.2978 14.2543 32.3468C14.4272 32.4447 14.7275 32.7221 14.9494 32.9929C15.0897 33.1626 15.3377 33.5575 15.3377 33.6097C15.3377 33.6227 15.3703 33.6978 15.4062 33.7761C15.478 33.9229 15.54 34.171 15.6053 34.5593C15.6706 34.9672 15.5857 35.6819 15.4193 36.0767C15.3181 36.3215 15.168 36.5988 15.0734 36.7196C15.0212 36.7848 14.9787 36.8469 14.9787 36.8566C14.9787 36.8827 14.6491 37.2287 14.4925 37.369C14.4044 37.4473 14.0389 37.692 14.0128 37.692C13.9998 37.692 13.9639 37.7149 13.9345 37.741C13.8268 37.8389 13.2949 38.0184 12.9555 38.0738C12.528 38.1424 11.6404 38.1489 11.2749 38.0902C11.0563 38.051 10.7234 37.9466 10.4265 37.8193C10.3351 37.7802 10.1328 37.6627 9.90433 37.5126C9.68242 37.369 9.66284 37.3559 9.51273 37.2189C9.45073 37.1634 9.3822 37.1047 9.35936 37.0851C9.33651 37.0655 9.23209 36.9545 9.12766 36.8403C9.02324 36.7261 8.90902 36.5988 8.87639 36.5629C8.84049 36.5238 8.81112 36.4781 8.81112 36.4618C8.81112 36.4422 8.78175 36.403 8.74586 36.3704C8.70996 36.3378 8.6349 36.2301 8.57617 36.1289C8.51743 36.0278 8.44563 35.9005 8.413 35.8483C8.38037 35.7928 8.33142 35.6982 8.30205 35.6362C8.27594 35.5742 8.2172 35.4534 8.17152 35.3718C8.1291 35.287 8.0932 35.1956 8.0932 35.1695C8.0932 35.1402 8.0573 35.0325 8.01488 34.928C7.97246 34.8236 7.89414 34.6245 7.84519 34.4842C7.79298 34.3406 7.73097 34.2199 7.70487 34.2068C7.63307 34.1775 7.19253 34.3341 6.7063 34.5593C6.63451 34.5919 6.45829 34.6735 6.31471 34.7388C6.17112 34.804 5.95248 34.9052 5.82521 34.9672C5.70121 35.0259 5.47278 35.1336 5.3194 35.2054C5.16603 35.2772 4.87233 35.4175 4.66674 35.5154C4.46116 35.6133 4.17399 35.7504 4.0304 35.8157C3.88682 35.8842 3.51154 36.0637 3.19826 36.217C2.88499 36.3671 2.54887 36.527 2.45423 36.5695L2.27802 36.6478L2.30086 36.8175C2.31391 36.9121 2.3596 37.0883 2.40202 37.2058C2.44444 37.3266 2.48034 37.4408 2.48034 37.4603C2.48034 37.4832 2.50971 37.5615 2.54234 37.6398C2.57824 37.7149 2.62719 37.8356 2.65329 37.9074C2.80014 38.299 3.16563 39.0528 3.27658 39.1932C3.29943 39.2193 3.37774 39.3433 3.45606 39.4705C3.53112 39.5945 3.61923 39.7349 3.65186 39.7805C3.68776 39.8262 3.8085 39.9927 3.92598 40.1558C4.04346 40.3157 4.16746 40.4756 4.20009 40.505C4.23273 40.5376 4.29473 40.6062 4.34041 40.6616C4.53295 40.8933 5.03223 41.3894 5.28677 41.6047C5.82848 42.0551 5.92637 42.1301 6.26249 42.3422C6.29186 42.3585 6.37671 42.414 6.45176 42.463C6.52682 42.5152 6.59535 42.5543 6.60514 42.5543C6.61493 42.5543 6.68672 42.5968 6.76504 42.6522C6.84662 42.7045 6.9282 42.7501 6.94778 42.7501C6.9641 42.7501 7.03589 42.786 7.10116 42.8317C7.16969 42.8774 7.26106 42.9231 7.30675 42.9362C7.35243 42.9459 7.44707 42.9916 7.51233 43.034C7.58086 43.0732 7.64939 43.1091 7.66897 43.1091C7.68529 43.1091 7.79624 43.1515 7.91372 43.207C8.0312 43.2592 8.15194 43.3049 8.18457 43.3049C8.2172 43.3049 8.25636 43.318 8.27268 43.3343C8.29226 43.3506 8.39995 43.393 8.51743 43.4289C8.6349 43.4648 8.84702 43.5333 8.9906 43.5758C9.13419 43.6214 9.31041 43.6671 9.3822 43.6802C9.45399 43.6932 9.66284 43.7389 9.84885 43.7813C10.322 43.889 10.7332 43.9282 11.6339 43.9478C12.3746 43.9641 13.21 43.9282 13.804 43.8564C14.2641 43.8009 15.093 43.5921 15.6086 43.3995C15.7489 43.3473 15.8761 43.3049 15.8925 43.3049C15.9088 43.3049 16.0002 43.269 16.0948 43.2266C16.1894 43.1842 16.3917 43.0928 16.5451 43.0243C16.8584 42.8872 17.4327 42.5772 17.6481 42.4271C17.6971 42.3944 17.8145 42.3194 17.9092 42.2606C18.0071 42.2019 18.1017 42.1366 18.1213 42.1171C18.1441 42.0975 18.2486 42.0159 18.3562 41.9376C18.8425 41.5786 19.4494 40.988 19.9324 40.4104C20.1152 40.1885 20.2653 39.9959 20.2653 39.9796C20.2653 39.9633 20.2881 39.9307 20.3175 39.9078C20.3632 39.8687 20.6438 39.4673 20.7907 39.2291C21.1496 38.6515 21.5706 37.7084 21.6685 37.2678C21.6815 37.2058 21.724 37.059 21.7599 36.9415C21.799 36.824 21.8708 36.4944 21.9198 36.2072C22.0079 35.6982 22.0111 35.6557 22.0111 34.4614C22.0111 33.2409 22.0111 33.2377 21.9198 32.8134C21.8284 32.3957 21.7076 31.9617 21.613 31.7039C21.5836 31.6321 21.5445 31.5212 21.5184 31.4559C21.4107 31.1589 20.9342 30.2322 20.8331 30.1179C20.807 30.0918 20.7874 30.0559 20.7874 30.0429C20.7874 30.0298 20.6797 29.8797 20.5524 29.7068C20.4219 29.5338 20.2914 29.3641 20.2653 29.325C20.1576 29.1781 19.7562 28.7604 19.3842 28.4112C19.3157 28.346 18.9469 28.049 18.6336 27.8043C18.415 27.6378 18.2388 27.5106 18.2225 27.5106C18.2127 27.5106 18.1604 27.4779 18.1082 27.4355C18.0593 27.3964 17.919 27.305 17.8015 27.2332C17.684 27.1614 17.5339 27.07 17.4719 27.0276C17.4099 26.9884 17.3446 26.9558 17.3283 26.9558C17.312 26.9558 17.2337 26.9134 17.1554 26.8579C17.0738 26.8057 16.9922 26.76 16.9726 26.76C16.953 26.76 16.8812 26.7274 16.8127 26.685C16.6691 26.5969 15.9806 26.2575 15.6314 26.1074C15.4976 26.0486 15.2985 25.9605 15.1909 25.9083C14.8221 25.7353 14.5545 25.6179 14.5349 25.6179C14.5219 25.6179 14.424 25.5754 14.313 25.5232C14.2053 25.4743 14.0193 25.3894 13.9019 25.3405C13.4385 25.1447 13.2231 25.0501 13.0306 24.9619C12.9196 24.9097 12.8152 24.8673 12.7989 24.8673C12.7793 24.8673 12.6781 24.8216 12.5704 24.7694C12.4595 24.7139 12.3551 24.6715 12.3387 24.6715C12.3192 24.6715 12.2278 24.6356 12.1332 24.5932C12.0385 24.5508 11.8492 24.4692 11.7155 24.4104C11.5817 24.3517 11.3793 24.2636 11.2684 24.2114C11.1574 24.1592 11.0563 24.1168 11.0432 24.1168C11.0008 24.1168 10.1882 23.6958 9.99896 23.575C9.75748 23.4217 9.17008 22.8375 9.17008 22.7527C9.17008 22.7364 9.12766 22.6679 9.07219 22.5961C9.01997 22.5275 8.97429 22.4557 8.97429 22.4427C8.97429 22.4296 8.94165 22.348 8.90249 22.2632C8.70996 21.839 8.60554 21.1276 8.67733 20.7034C8.74912 20.2824 8.93186 19.7798 9.08524 19.571C9.23861 19.3654 9.51273 19.0423 9.5421 19.0293C9.55842 19.0228 9.60737 18.9836 9.64326 18.9477C9.73137 18.8596 9.97612 18.703 10.2307 18.5789C10.4493 18.468 10.9388 18.2755 11.0008 18.2755C11.0497 18.2755 11.5914 18.1156 11.9961 17.9818C12.1593 17.9263 12.3126 17.8839 12.3387 17.8839C12.3616 17.8839 12.4791 17.8512 12.5965 17.8088C12.714 17.7664 12.962 17.6848 13.1513 17.6228C13.5037 17.5119 13.8692 17.3911 14.2119 17.2736C14.4142 17.2018 14.4762 17.179 14.8645 17.0452C14.9918 17.0028 15.2039 16.9245 15.341 16.8722C15.4748 16.8168 15.6086 16.7744 15.6347 16.7744C15.6608 16.7744 15.7685 16.7287 15.8761 16.6765C15.9838 16.621 16.0883 16.5786 16.1111 16.5786C16.1339 16.5786 16.2286 16.5427 16.3265 16.5002C16.4211 16.4545 16.5582 16.3991 16.6267 16.373C16.6985 16.3469 16.8812 16.2718 17.0346 16.2033C17.188 16.138 17.4001 16.0466 17.5045 16.0042C17.6122 15.9618 17.7297 15.9031 17.7721 15.8769C17.8145 15.8508 17.8635 15.828 17.8798 15.828C17.9222 15.828 19.2504 15.2047 19.6289 15.0056C19.7007 14.9698 19.952 14.8392 20.1837 14.7185C20.5753 14.5162 20.9571 14.3106 21.3356 14.0952C21.4205 14.0462 21.5608 13.9679 21.6522 13.919C21.7403 13.87 21.8219 13.8211 21.8317 13.8113C21.8414 13.7982 21.9132 13.7525 21.9948 13.7101C22.158 13.622 22.4419 13.4491 22.6801 13.2892C22.7682 13.2337 22.8531 13.1847 22.8629 13.1847C22.8759 13.1847 22.9379 13.1456 23.0032 13.0934C23.0684 13.0444 23.1435 12.9889 23.1761 12.9726C23.2055 12.953 23.3099 12.8943 23.4046 12.8388C23.5025 12.7801 23.6004 12.7116 23.6232 12.6822C23.646 12.6528 23.6819 12.63 23.6983 12.63C23.7178 12.63 23.7864 12.5843 23.8549 12.5321C23.9234 12.4766 23.992 12.4342 24.0115 12.4342C24.0278 12.4342 24.0605 12.4113 24.0833 12.3852C24.1062 12.3559 24.2465 12.2514 24.3901 12.1535C24.8241 11.8598 25.1047 11.6542 25.1928 11.5694C25.2385 11.5237 25.294 11.4878 25.3136 11.4878C25.3332 11.4878 25.356 11.4748 25.3625 11.4617C25.3691 11.4454 25.4409 11.3801 25.5224 11.3181C25.6073 11.2561 25.6954 11.1876 25.7182 11.168C25.7443 11.1452 25.8749 11.0407 26.0087 10.9331C26.1425 10.8221 26.3024 10.6916 26.3644 10.6394C26.4264 10.5839 26.4851 10.5415 26.4949 10.5415C26.5079 10.5415 26.5569 10.5023 26.6026 10.4501C26.6515 10.4011 26.7168 10.3391 26.7494 10.313C26.9256 10.1662 27.314 9.83007 27.4119 9.7387C28.1429 9.05667 29.2393 7.97326 29.2393 7.92757C29.2393 7.88515 29.1382 7.89167 29.037 7.94389Z" fill="white"/>
<path d="M28.5061 10.7596C28.2026 10.802 27.4292 10.9717 27.3933 11.0011C27.2824 11.0925 27.3574 11.1871 27.6511 11.3372C27.8045 11.4123 27.8502 11.4841 27.9024 11.7157C27.9546 11.9605 28.0003 12.0747 28.0493 12.0747C28.0917 12.0747 28.1961 11.9735 28.1961 11.9311C28.1961 11.9181 28.232 11.8593 28.2777 11.8006C28.3234 11.7419 28.3593 11.6831 28.3593 11.6701C28.3593 11.6537 28.3919 11.5983 28.4343 11.5428C28.5159 11.4253 28.6301 11.2295 28.7052 11.0631C28.7346 11.0011 28.7802 10.9228 28.8063 10.8934C28.8357 10.8608 28.8488 10.8151 28.839 10.7857C28.8194 10.7368 28.7248 10.7302 28.5061 10.7596Z" fill="white"/>
<path d="M26.5678 12.0639C26.5417 12.0737 26.3753 12.1944 26.1958 12.3315C25.6541 12.7427 25.0667 13.1669 24.587 13.4932C24.4434 13.5911 24.3031 13.6923 24.2802 13.7217C24.2574 13.7478 24.228 13.7706 24.215 13.7706C24.2019 13.7706 24.104 13.8294 23.9996 13.9012C23.8919 13.9762 23.7483 14.0708 23.6765 14.1165C23.6047 14.1622 23.4383 14.2732 23.311 14.3613C23.1805 14.4494 23.063 14.5212 23.05 14.5212C23.0336 14.5244 22.9716 14.5669 22.9096 14.6191C22.8476 14.6746 22.7856 14.717 22.7726 14.717C22.7595 14.717 22.6323 14.7953 22.4887 14.8867C22.1982 15.0792 22.0775 15.1543 21.8882 15.2652C21.8164 15.3044 21.7218 15.3664 21.6761 15.4023C21.6337 15.4382 21.5782 15.4675 21.5554 15.4675C21.5325 15.4675 21.4966 15.4871 21.4771 15.5132C21.4542 15.5393 21.3759 15.5915 21.3008 15.6307C21.2258 15.6666 21.0691 15.758 20.9517 15.8298C20.8342 15.8983 20.6808 15.9897 20.609 16.0256C20.5372 16.0614 20.3904 16.143 20.2827 16.2018C20.175 16.2638 20.0151 16.3519 19.9237 16.3976C19.8356 16.4433 19.6007 16.5705 19.4016 16.6749C19.2058 16.7794 18.9904 16.8903 18.9284 16.923C18.8664 16.9523 18.7783 16.9948 18.7326 17.0176C18.4716 17.1579 17.0749 17.8367 16.791 17.9639C16.7388 17.9868 16.5625 18.0684 16.4026 18.1402C16.2427 18.2152 16.1024 18.274 16.0861 18.274C16.073 18.274 15.9686 18.3164 15.8544 18.3686C15.6521 18.46 15.4954 18.522 15.2083 18.6297C15.0092 18.7047 14.7188 18.8581 14.7188 18.8875C14.7188 18.9397 14.8363 19.0833 15.1267 19.3835C15.2899 19.5532 15.4693 19.7522 15.5215 19.824C15.5738 19.8958 15.6227 19.9611 15.6325 19.9709C15.7304 20.0557 16.0992 20.8095 16.2525 21.2272C16.2917 21.3349 16.3439 21.4752 16.3667 21.5373C16.3896 21.5993 16.4353 21.658 16.4646 21.6613C16.4973 21.6678 16.6996 21.5862 16.9182 21.4785C17.1336 21.3708 17.4893 21.2011 17.7047 21.0967C18.4781 20.7247 19.307 20.3266 19.4016 20.2744C19.4571 20.245 19.5223 20.2091 19.5484 20.1993C19.6039 20.1732 20.596 19.687 21.2258 19.3802C21.4542 19.266 21.6533 19.155 21.6598 19.1322C21.6761 19.0898 21.3204 18.3327 21.2062 18.1695C21.1736 18.1238 21.1475 18.0684 21.1475 18.0488C21.1475 18.0194 21.0985 17.9411 20.8766 17.6115L20.8146 17.5169L20.9256 17.4222C20.9843 17.3733 21.0463 17.3309 21.0594 17.3276C21.092 17.3276 21.291 17.1873 21.3041 17.1547C21.3106 17.1416 21.3367 17.1318 21.3628 17.1318C21.3889 17.1318 21.4346 17.1057 21.4673 17.0731C21.4966 17.0437 21.5913 16.9719 21.6761 16.9197C21.7642 16.8642 21.8328 16.812 21.8328 16.7957C21.8328 16.7826 21.8491 16.7728 21.8686 16.7728C21.8882 16.7728 21.9535 16.7337 22.0122 16.6815C22.071 16.6325 22.1819 16.5477 22.257 16.4955C22.3353 16.44 22.456 16.3486 22.5311 16.2899C22.6062 16.2344 22.6812 16.1757 22.6975 16.1593C22.7171 16.1463 22.8052 16.0778 22.8933 16.006C22.9847 15.9342 23.0826 15.8526 23.1185 15.8265C23.1772 15.7808 23.3078 15.6666 23.4481 15.5361C23.484 15.5034 23.6471 15.3631 23.807 15.2228C24.1334 14.9389 25.2821 13.7902 25.5366 13.49C25.7324 13.2615 25.8825 13.0984 25.9934 12.9874C26.0391 12.9417 26.075 12.8961 26.075 12.8863C26.075 12.8732 26.124 12.8145 26.186 12.7492C26.372 12.5501 26.6983 12.1031 26.6787 12.0704C26.6559 12.0378 26.6363 12.0378 26.5678 12.0639Z" fill="white"/>
</g>
<path d="M34.3821 15.9873V43.2964H29.9026V15.9873H34.3821Z" fill="white"/>
<path d="M47.8892 15.8383C50.7969 15.8383 53.3379 16.4015 55.5122 17.528C57.7126 18.6282 59.4023 20.2261 60.5811 22.3218C61.7861 24.3913 62.3886 26.8144 62.3886 29.5911C62.3886 32.3679 61.7861 34.7779 60.5811 36.8212C59.4023 38.8644 57.7126 40.4362 55.5122 41.5364C53.3379 42.6104 50.7969 43.1475 47.8892 43.1475H38.9695V15.8383H47.8892ZM47.8892 39.4931C51.0851 39.4931 53.5344 38.6287 55.2371 36.8998C56.9399 35.1708 57.7912 32.7346 57.7912 29.5911C57.7912 26.4214 56.9399 23.9459 55.2371 22.1646C53.5344 20.3833 51.0851 19.4926 47.8892 19.4926H43.449V39.4931H47.8892Z" fill="white"/>
<path d="M75.0978 16.1411C78.0056 16.1411 80.5466 16.7043 82.7208 17.8307C84.9213 18.9309 86.6109 20.5289 87.7897 22.6245C88.9947 24.694 89.5972 27.1171 89.5972 29.8939C89.5972 32.6706 88.9947 35.0806 87.7897 37.1239C86.6109 39.1672 84.9213 40.7389 82.7208 41.8392C80.5466 42.9132 78.0056 43.4502 75.0978 43.4502H66.1782V16.1411H75.0978ZM75.0978 39.7959C78.2937 39.7959 80.743 38.9314 82.4457 37.2025C84.1485 35.4736 84.9998 33.0374 84.9998 29.8939C84.9998 26.7242 84.1485 24.2487 82.4457 22.4674C80.743 20.686 78.2937 19.7954 75.0978 19.7954H70.6576V39.7959H75.0978Z" fill="white"/>
<path d="M115.187 15.6909V43H110.708V31.0547H97.8585V43H93.379V15.6909H97.8585V27.4004H110.708V15.6909H115.187Z" fill="white"/>
<path d="M125.048 16.2905V43.5996H120.568V16.2905H125.048Z" fill="white"/>
<defs>
<clipPath id="clip0_1_425">
<rect width="32.6003" height="39.1595" fill="white" transform="translate(7.62939e-06 5.28564)"/>
</clipPath>
</defs>
</svg>
