<svg width="393" height="393" viewBox="0 0 393 393" fill="none" xmlns="http://www.w3.org/2000/svg">
<path d="M73.5785 108.537C93.7622 88.353 123.831 81.835 156.168 87.6604C188.503 93.4856 223.077 111.651 252.213 140.787C281.349 169.923 299.514 204.497 305.34 236.832C311.165 269.169 304.647 299.238 284.463 319.422C264.28 339.605 234.21 346.123 201.874 340.298C169.539 334.473 134.965 316.307 105.829 287.171C76.6931 258.035 58.5274 223.461 52.7022 191.126C46.8769 158.79 53.3948 128.72 73.5785 108.537Z" stroke="black" stroke-width="0.546222"/>
<path d="M131.096 133.096C143.691 120.502 162.462 116.427 182.666 120.067C202.868 123.706 224.476 135.057 242.688 153.269C260.9 171.481 272.251 193.089 275.891 213.292C279.53 233.496 275.456 252.267 262.861 264.861C250.266 277.456 231.496 281.53 211.292 277.89C191.089 274.251 169.481 262.9 151.269 244.688C133.057 226.476 121.706 204.868 118.067 184.666C114.427 164.462 118.501 145.691 131.096 133.096Z" stroke="black" stroke-width="0.546222"/>
<path d="M91.058 91.0575C111.242 70.8738 141.311 64.3559 173.647 70.1813C205.982 76.0065 240.556 94.1721 269.692 123.308C298.828 152.444 316.994 187.018 322.819 219.353C328.644 251.689 322.127 281.759 301.943 301.942C281.759 322.126 251.69 328.644 219.354 322.819C187.019 316.993 152.445 298.828 123.309 269.692C94.1726 240.556 76.0069 205.982 70.1817 173.647C64.3564 141.311 70.8743 111.241 91.058 91.0575Z" stroke="black" stroke-width="0.546222"/>
<path d="M108.536 73.5784C128.72 53.3947 158.789 46.8768 191.126 52.7022C223.461 58.5274 258.035 76.693 287.171 105.829C316.307 134.965 334.472 169.539 340.298 201.874C346.123 234.21 339.605 264.28 319.421 284.463C299.238 304.647 269.168 311.165 236.832 305.34C204.497 299.514 169.923 281.349 140.787 252.213C111.651 223.077 93.4854 188.503 87.6602 156.168C81.8349 123.831 88.3528 93.7621 108.536 73.5784Z" stroke="black" stroke-width="0.546222"/>
</svg>
