<svg width="114" height="212" viewBox="0 0 114 212" fill="none" xmlns="http://www.w3.org/2000/svg">
<path d="M0 106.891C0 106.891 51.6135 90.8571 69.8562 69.9244C88.0989 48.9916 101.892 0 101.892 0C101.892 0 109.901 43.2017 129.034 65.0252C148.166 86.8487 198 106.891 198 106.891C198 106.891 170.413 114.017 143.717 137.622C117.02 161.227 101.892 212 101.892 212C101.892 212 82.3146 155.882 62.2921 137.622C42.2697 119.361 0 106.891 0 106.891Z" fill="#FFBD14"/>
<path d="M0 106.891C0 106.891 51.6135 90.8571 69.8562 69.9244C88.0989 48.9916 101.892 0 101.892 0C101.892 0 109.901 43.2017 129.034 65.0252C148.166 86.8487 198 106.891 198 106.891C198 106.891 170.413 114.017 143.717 137.622C117.02 161.227 101.892 212 101.892 212C101.892 212 82.3146 155.882 62.2921 137.622C42.2697 119.361 0 106.891 0 106.891Z" fill="#0094EE"/>
</svg>
