<svg width="98" height="212" viewBox="0 0 98 212" fill="none" xmlns="http://www.w3.org/2000/svg">
<path d="M-100 106.891C-100 106.891 -48.3865 90.8571 -30.1438 69.9244C-11.9011 48.9916 1.89214 0 1.89214 0C1.89214 0 9.90112 43.2017 29.0337 65.0252C48.1663 86.8487 98 106.891 98 106.891C98 106.891 70.4135 114.017 43.7169 137.622C17.0202 161.227 1.89214 212 1.89214 212C1.89214 212 -17.6854 155.882 -37.7079 137.622C-57.7303 119.361 -100 106.891 -100 106.891Z" fill="#FFBD14"/>
<path d="M-100 106.891C-100 106.891 -48.3865 90.8571 -30.1438 69.9244C-11.9011 48.9916 1.89214 0 1.89214 0C1.89214 0 9.90112 43.2017 29.0337 65.0252C48.1663 86.8487 98 106.891 98 106.891C98 106.891 70.4135 114.017 43.7169 137.622C17.0202 161.227 1.89214 212 1.89214 212C1.89214 212 -17.6854 155.882 -37.7079 137.622C-57.7303 119.361 -100 106.891 -100 106.891Z" fill="#FFBD14"/>
</svg>
