<svg width="76" height="35" viewBox="0 0 76 35" fill="none" xmlns="http://www.w3.org/2000/svg">
<g clip-path="url(#clip0_1_403)">
<path d="M4.44378 19.7093L1.03139 21.4162C3.34221 25.7774 5.25362 26.7327 9.93153 25.3709C9.92911 23.7647 9.57958 22.9798 8.29293 21.7861L4.44378 19.7093Z" fill="url(#paint0_linear_1_403)"/>
<path d="M7.64114 19.5368L7.93825 21.9969C9.86454 23.0463 9.60209 24.3022 9.51446 25.6886C12.1798 24.0473 10.973 20.7874 7.64114 19.5368Z" fill="url(#paint1_linear_1_403)"/>
<path d="M8.40443 18.9014L8.86496 21.0898C10.7912 22.1392 10.7368 23.135 10.6491 24.5213C13.3145 22.88 11.7362 20.1521 8.40443 18.9014Z" fill="url(#paint2_linear_1_403)"/>
<path d="M6.88584 10.1784L5.30517 13.0337L2.97726 16.6719L0.000152588 13.5596L6.88584 10.1784Z" fill="url(#paint3_linear_1_403)"/>
<path d="M5.63363 13.3828L3.96829 17.1933L3.1631 16.7208C3.01008 14.8876 3.26514 13.5965 5.28748 12.6875L5.63363 13.3828Z" fill="url(#paint4_linear_1_403)"/>
<path d="M16.4653 7.35087L15.7774 6.25748H17.1694L16.4653 7.35087Z" fill="#29D1F9"/>
<path d="M19.0383 3.28037L16.6064 3.61463L17.9107 5.27106L19.0383 3.28037Z" fill="#29D1F9"/>
<path d="M9.03779 11.6558L12.1382 10.2088L12.8676 11.1953L9.51466 12.8413L9.03779 11.6558Z" fill="url(#paint5_linear_1_403)"/>
<path d="M5.77996 13.3147C4.06902 14.4283 3.89842 15.303 4.01657 17.0792L8.41687 18.9145L10.6928 15.6002L5.77996 13.3147Z" fill="url(#paint6_linear_1_403)"/>
<path d="M10.3296 15.6919C8.89997 16.5878 8.54245 17.2325 8.42065 18.9171C11.9105 20.4187 11.8388 22.4758 11.1824 24.7391C16.4174 20.4257 13.8779 18.4052 10.3296 15.6919Z" fill="url(#paint7_linear_1_403)"/>
<path d="M10.6222 10.1003C17.4206 9.73831 8.15313 6.37592 8.15313 6.37592C-4.54721 8.52237 3.81736 19.9413 2.82434 16.2372C1.83133 12.5331 3.82374 10.4622 10.6222 10.1003Z" fill="url(#paint8_linear_1_403)"/>
<path d="M10.3325 9.71253L8.22889 6.68046L15.4043 3.0794L17.8956 5.00323L10.3325 9.71253Z" fill="url(#paint9_linear_1_403)"/>
<path d="M15.6341 6.78418L8.3963 10.8443L8.83158 11.9585L15.8747 8.23411L15.6341 6.78418Z" fill="url(#paint10_linear_1_403)"/>
<path d="M-14.6978 15.9204V37.9665H7.34827H29.3943V15.9204V-6.12563H7.34827H-14.6978V15.9204ZM18.4144 3.54536C18.4144 3.59703 17.747 4.8974 17.7211 4.8974C17.7082 4.8974 17.6695 4.72517 17.6436 4.51849L17.5919 4.13957L17.269 3.98026C17.0925 3.89414 16.9504 3.80802 16.9504 3.78649C16.9504 3.76926 17.2475 3.70468 17.6092 3.64009C18.3498 3.51522 18.4144 3.51091 18.4144 3.54536ZM15.8222 4.62614L15.594 4.91463L15.5811 4.75531C15.5725 4.63475 15.5337 4.57016 15.4175 4.48404C15.3357 4.41945 15.2711 4.35487 15.2711 4.33334C15.2711 4.29028 16.0203 4.26014 16.0375 4.3032C16.0461 4.32042 15.9471 4.46251 15.8222 4.62614ZM13.5143 4.71225C13.398 4.85004 13.2473 5.00936 13.1827 5.06964L13.0622 5.17729L13.0966 4.9663C13.1268 4.75962 13.1224 4.75101 12.9588 4.61322L12.7952 4.47112L13.2602 4.46682H13.7296L13.5143 4.71225ZM16.4983 5.1902C14.5735 7.07187 12.2225 8.54448 9.28591 9.70276C8.64434 9.9525 7.28799 10.4046 6.58183 10.5984C6.05651 10.7448 5.7594 10.8955 5.51397 11.1323C4.89392 11.7437 4.881 12.803 5.48813 13.4747C5.73787 13.7546 6.02206 13.9182 6.8531 14.267C8.30848 14.8827 9.22133 15.2832 9.69497 15.5243C11.4776 16.4156 12.4809 17.604 12.7952 19.2144C12.9072 19.7828 12.8684 20.9023 12.7134 21.475C12.511 22.2329 12.2871 22.7022 11.8178 23.3352C10.9867 24.4633 9.80262 25.2125 8.36876 25.5269C7.84775 25.6388 6.81434 25.6819 6.24597 25.613C4.32124 25.3718 2.81418 24.3901 1.88412 22.7797C1.69035 22.4438 1.432 21.8109 1.38463 21.5568L1.3588 21.4061L1.93148 21.1306C4.1447 20.0713 4.48486 19.9206 4.51501 19.9981C4.53223 20.0412 4.60973 20.2478 4.68293 20.4545C5.0231 21.4061 5.7551 22.0994 6.59474 22.2544C6.94782 22.319 7.57218 22.2802 7.87359 22.1726C8.58406 21.9185 9.08784 21.277 9.14382 20.5622C9.18688 19.9852 9.00603 19.4857 8.60989 19.081C8.33432 18.8054 8.07596 18.6762 6.16416 17.8581C5.43216 17.5481 4.60543 17.1735 4.33416 17.0357C2.93905 16.3166 1.96593 15.2358 1.56548 13.9613C1.37602 13.3714 1.34588 13.1345 1.34588 12.4112C1.34588 11.8083 1.36311 11.6619 1.46214 11.2572C1.81091 9.85347 2.65917 8.74686 3.94663 8.01917C4.71308 7.58858 5.57425 7.31731 6.59044 7.19674C7.809 7.05034 10.3064 6.51211 11.7446 6.08583C12.5153 5.85762 13.8329 5.39258 14.5778 5.08686C14.7759 5.00505 14.9481 4.94477 14.9568 4.95769C14.9826 4.98352 13.7296 5.80595 13.2215 6.09444C12.2785 6.63267 10.8662 7.19244 9.4237 7.61011L9.11368 7.70053L9.32467 7.94596C9.44523 8.07945 9.57441 8.23446 9.61747 8.29043L9.69497 8.38947L10.104 8.24307C12.2268 7.48093 14.4099 6.3614 16.4121 5.00936C16.7437 4.78545 17.0365 4.60461 17.058 4.6003C17.0839 4.6003 16.8298 4.86296 16.4983 5.1902ZM16.8212 6.30543C16.8212 6.34848 16.4294 7.00298 16.3906 7.02881C16.3691 7.04173 16.3389 6.96423 16.3217 6.85658C16.3002 6.69296 16.27 6.6499 16.1581 6.58961C15.8481 6.4346 15.9127 6.40016 16.7911 6.27959C16.8083 6.27529 16.8212 6.2882 16.8212 6.30543ZM15.4175 7.25272C14.5262 8.34641 13.5746 9.22911 12.5067 9.9525L12.1278 10.2065L12.2182 10.34C12.3302 10.5123 12.6531 11.1452 12.6359 11.1625C12.6057 11.1883 9.61747 12.648 9.60885 12.6394C9.60885 12.6308 9.54857 12.4801 9.48398 12.3035C9.31175 11.8514 9.11368 11.5371 8.8338 11.2744C8.70032 11.1452 8.60559 11.029 8.62712 11.0117C8.64434 10.9945 8.89408 10.8869 9.17827 10.7749C9.98777 10.4563 11.5939 9.64679 12.5153 9.09563C13.3937 8.56601 14.5046 7.82109 15.1634 7.31731C15.3787 7.15368 15.5596 7.02451 15.5682 7.03312C15.5768 7.04173 15.5079 7.14077 15.4175 7.25272Z" fill="white"/>
</g>
<path d="M20.0146 9.28325V25.1752H17.4079V9.28325H20.0146Z" fill="url(#paint11_linear_1_403)"/>
<path d="M27.8753 9.19565C29.5674 9.19565 31.046 9.5234 32.3113 10.1789C33.5918 10.8191 34.575 11.749 35.261 12.9686C35.9622 14.1728 36.3129 15.5829 36.3129 17.1988C36.3129 18.8147 35.9622 20.2171 35.261 21.4062C34.575 22.5952 33.5918 23.5098 32.3113 24.1501C31.046 24.7751 29.5674 25.0876 27.8753 25.0876H22.6847V9.19565H27.8753ZM27.8753 22.9611C29.735 22.9611 31.1604 22.458 32.1512 21.4519C33.1421 20.4458 33.6375 19.0281 33.6375 17.1988C33.6375 15.3543 33.1421 13.9137 32.1512 12.8771C31.1604 11.8405 29.735 11.3222 27.8753 11.3222H25.2914V22.9611H27.8753Z" fill="url(#paint12_linear_1_403)"/>
<path d="M43.7057 9.37086C45.3977 9.37086 46.8764 9.6986 48.1417 10.3541C49.4222 10.9944 50.4054 11.9242 51.0914 13.1438C51.7926 14.348 52.1433 15.7581 52.1433 17.374C52.1433 18.9899 51.7926 20.3923 51.0914 21.5814C50.4054 22.7704 49.4222 23.685 48.1417 24.3253C46.8764 24.9503 45.3977 25.2628 43.7057 25.2628H38.515V9.37086H43.7057ZM43.7057 23.1363C45.5654 23.1363 46.9908 22.6332 47.9816 21.6271C48.9725 20.621 49.4679 19.2033 49.4679 17.374C49.4679 15.5295 48.9725 14.0889 47.9816 13.0523C46.9908 12.0157 45.5654 11.4974 43.7057 11.4974H41.1218V23.1363H43.7057Z" fill="url(#paint13_linear_1_403)"/>
<path d="M67.0361 9.10805V25H64.4294V18.0487H56.9522V25H54.3454V9.10805H56.9522V15.9222H64.4294V9.10805H67.0361Z" fill="url(#paint14_linear_1_403)"/>
<path d="M72.7826 9.45846V25.3504H70.1758V9.45846H72.7826Z" fill="url(#paint15_linear_1_403)"/>
<defs>
<linearGradient id="paint0_linear_1_403" x1="4.9474" y1="24.6356" x2="6.25917" y2="22.1696" gradientUnits="userSpaceOnUse">
<stop stop-color="#141E9A"/>
<stop offset="1" stop-color="#203FA1"/>
</linearGradient>
<linearGradient id="paint1_linear_1_403" x1="9.40304" y1="23.4054" x2="10.59" y2="22.4501" gradientUnits="userSpaceOnUse">
<stop stop-color="#0A257E"/>
<stop offset="1" stop-color="#1E2E86"/>
</linearGradient>
<linearGradient id="paint2_linear_1_403" x1="10.6165" y1="22.3822" x2="10.1322" y2="19.9548" gradientUnits="userSpaceOnUse">
<stop stop-color="#001253"/>
<stop offset="1" stop-color="#112168"/>
</linearGradient>
<linearGradient id="paint3_linear_1_403" x1="2.95944" y1="15.9424" x2="5.28883" y2="11.2286" gradientUnits="userSpaceOnUse">
<stop stop-color="#0A176C"/>
<stop offset="1" stop-color="#072562"/>
</linearGradient>
<linearGradient id="paint4_linear_1_403" x1="3.54489" y1="16.3658" x2="5.16864" y2="13.2059" gradientUnits="userSpaceOnUse">
<stop stop-color="#122480"/>
<stop offset="1" stop-color="#123F84"/>
</linearGradient>
<linearGradient id="paint5_linear_1_403" x1="9.37947" y1="12.2782" x2="12.4888" y2="10.5312" gradientUnits="userSpaceOnUse">
<stop stop-color="#0080C2"/>
<stop offset="1" stop-color="#0BB2E8"/>
</linearGradient>
<linearGradient id="paint6_linear_1_403" x1="6.4871" y1="17.7973" x2="7.50919" y2="14.6687" gradientUnits="userSpaceOnUse">
<stop stop-color="#0A4CA6"/>
<stop offset="1" stop-color="#166EB7"/>
</linearGradient>
<linearGradient id="paint7_linear_1_403" x1="11.7721" y1="23.3205" x2="10.5718" y2="16.105" gradientUnits="userSpaceOnUse">
<stop stop-color="#144EB5"/>
<stop offset="1" stop-color="#1291CD"/>
</linearGradient>
<linearGradient id="paint8_linear_1_403" x1="-3.41512" y1="16.9696" x2="14.8249" y2="5.21715" gradientUnits="userSpaceOnUse">
<stop stop-color="#173FA7"/>
<stop offset="1" stop-color="#3BD9FF"/>
</linearGradient>
<linearGradient id="paint9_linear_1_403" x1="-3.41512" y1="16.9696" x2="14.8249" y2="5.21715" gradientUnits="userSpaceOnUse">
<stop stop-color="#173FA7"/>
<stop offset="1" stop-color="#3BD9FF"/>
</linearGradient>
<linearGradient id="paint10_linear_1_403" x1="8.81524" y1="11.443" x2="14.3594" y2="7.91917" gradientUnits="userSpaceOnUse">
<stop stop-color="#0163A6"/>
<stop offset="1" stop-color="#53CFF2"/>
</linearGradient>
<linearGradient id="paint11_linear_1_403" x1="19.1929" y1="0.175205" x2="19.1929" y2="34.1752" gradientUnits="userSpaceOnUse">
<stop stop-color="#29D1F9"/>
<stop offset="1" stop-color="#203FA1"/>
</linearGradient>
<linearGradient id="paint12_linear_1_403" x1="29.4697" y1="0.0876045" x2="29.4697" y2="34.0876" gradientUnits="userSpaceOnUse">
<stop stop-color="#29D1F9"/>
<stop offset="1" stop-color="#203FA1"/>
</linearGradient>
<linearGradient id="paint13_linear_1_403" x1="45.3001" y1="0.26281" x2="45.3001" y2="34.2628" gradientUnits="userSpaceOnUse">
<stop stop-color="#29D1F9"/>
<stop offset="1" stop-color="#203FA1"/>
</linearGradient>
<linearGradient id="paint14_linear_1_403" x1="61.1305" y1="0" x2="61.1305" y2="34" gradientUnits="userSpaceOnUse">
<stop stop-color="#29D1F9"/>
<stop offset="1" stop-color="#203FA1"/>
</linearGradient>
<linearGradient id="paint15_linear_1_403" x1="71.9609" y1="0.35041" x2="71.9609" y2="34.3504" gradientUnits="userSpaceOnUse">
<stop stop-color="#29D1F9"/>
<stop offset="1" stop-color="#203FA1"/>
</linearGradient>
<clipPath id="clip0_1_403">
<rect width="19.0244" height="22.8661" fill="white" transform="translate(0 3.07676)"/>
</clipPath>
</defs>
</svg>
